<svg xmlns="http://www.w3.org/2000/svg" width="93.457" height="93.457" viewBox="0 0 93.457 93.457">
  <path id="cash-frame-rupee" d="M62.729,20.673A42.056,42.056,0,1,1,20.673,62.729,42.1,42.1,0,0,1,62.729,20.673m0-4.673a46.729,46.729,0,1,0,46.729,46.729A46.728,46.728,0,0,0,62.729,16ZM49.25,49.118H63.657c-1-3.187-3.651-4.847-7.767-4.847H45.267l3.984-4.847H80.19l-3.984,4.847h-7.37A11.567,11.567,0,0,1,70.7,49.118H80.19l-3.984,4.847H70.762c-.73,5.112-4.116,8.5-9.627,9.693,5.577,1.926,7.3,4.316,8.765,12.084.863,4.05,2.656,9.162,3.452,9.959v.332h-7.1c-1.593-2.789-2.324-5.245-3.519-11.155-1.394-6.838-3.851-9.03-10.158-9.03H49.051V60.272h5.378c5.511,0,8.631-2.125,9.429-6.308H45.267l3.984-4.846Z" transform="translate(-16 -16)" fill="#fff"/>
</svg>
