<svg xmlns="http://www.w3.org/2000/svg" width="118.881" height="116.482" viewBox="0 0 118.881 116.482">
  <g id="Group_4329" data-name="Group 4329" transform="translate(-226.587 -4841)">
    <g id="Group_509" data-name="Group 509" transform="translate(19.016 -662)">
      <g id="Group_506" data-name="Group 506" transform="translate(-130 18)">
        <line id="Line_1469" data-name="Line 1469" y2="27" transform="translate(352.5 5561.5)" fill="none" stroke="#fff" stroke-width="4"/>
        <path id="Path_804" data-name="Path 804" d="M0,1.261,12.859,13.675.468,26.556l1.261,1.215,13.65-14.142L1.216,0Z" transform="translate(338.984 5566.375) rotate(-90)" fill="#fff" stroke="#fff" stroke-width="2"/>
      </g>
    </g>
    <g id="Group_526" data-name="Group 526" transform="translate(8.727 1263.482)">
      <path id="user" d="M65.729,60.147a14.6,14.6,0,1,0-10.788,0A24.041,24.041,0,0,0,36,83.915h3.245a21.09,21.09,0,1,1,42.181,0H84.67A24.041,24.041,0,0,0,65.729,60.147ZM48.979,46.6A11.356,11.356,0,1,1,60.335,57.957,11.39,11.39,0,0,1,48.979,46.6Z" transform="translate(233.988 3591.586)" fill="#fff"/>
      <g id="Group_525" data-name="Group 525" transform="translate(4.727 3.518)">
        <path id="wishlist" d="M42.045,42.455a.735.735,0,0,1-.3-.066l-7.779-3.536-7.779,3.536a.735.735,0,0,1-1.029-.79l1.407-8.445-6.346-6.346a.735.735,0,0,1,.4-1.245l8.466-1.411,4.238-7.769a.735.735,0,0,1,1.29,0l4.237,7.769,8.465,1.411a.735.735,0,0,1,.4,1.245l-6.346,6.346L42.769,41.6a.735.735,0,0,1-.725.856Zm-8.083-5.144a.737.737,0,0,1,.3.066l6.828,3.1L39.85,33.022a.735.735,0,0,1,.205-.641l5.6-5.6-7.41-1.235a.735.735,0,0,1-.524-.373l-3.763-6.9L30.2,25.17a.735.735,0,0,1-.524.373l-7.41,1.235,5.6,5.6a.735.735,0,0,1,.205.641L26.829,40.48l6.828-3.1a.736.736,0,0,1,.3-.066Z" transform="translate(227.549 3567.51)" fill="#fff" stroke="#fff" stroke-width="2"/>
        <path id="wishlist-2" data-name="wishlist" d="M42.045,42.455a.735.735,0,0,1-.3-.066l-7.779-3.536-7.779,3.536a.735.735,0,0,1-1.029-.79l1.407-8.445-6.346-6.346a.735.735,0,0,1,.4-1.245l8.466-1.411,4.238-7.769a.735.735,0,0,1,1.29,0l4.237,7.769,8.465,1.411a.735.735,0,0,1,.4,1.245l-6.346,6.346L42.769,41.6a.735.735,0,0,1-.725.856Zm-8.083-5.144a.737.737,0,0,1,.3.066l6.828,3.1L39.85,33.022a.735.735,0,0,1,.205-.641l5.6-5.6-7.41-1.235a.735.735,0,0,1-.524-.373l-3.763-6.9L30.2,25.17a.735.735,0,0,1-.524.373l-7.41,1.235,5.6,5.6a.735.735,0,0,1,.205.641L26.829,40.48l6.828-3.1a.736.736,0,0,1,.3-.066Z" transform="translate(255.313 3559)" fill="#fff" stroke="#fff" stroke-width="2"/>
        <path id="wishlist-3" data-name="wishlist" d="M42.045,42.455a.735.735,0,0,1-.3-.066l-7.779-3.536-7.779,3.536a.735.735,0,0,1-1.029-.79l1.407-8.445-6.346-6.346a.735.735,0,0,1,.4-1.245l8.466-1.411,4.238-7.769a.735.735,0,0,1,1.29,0l4.237,7.769,8.465,1.411a.735.735,0,0,1,.4,1.245l-6.346,6.346L42.769,41.6a.735.735,0,0,1-.725.856Zm-8.083-5.144a.737.737,0,0,1,.3.066l6.828,3.1L39.85,33.022a.735.735,0,0,1,.205-.641l5.6-5.6-7.41-1.235a.735.735,0,0,1-.524-.373l-3.763-6.9L30.2,25.17a.735.735,0,0,1-.524.373l-7.41,1.235,5.6,5.6a.735.735,0,0,1,.205.641L26.829,40.48l6.828-3.1a.736.736,0,0,1,.3-.066Z" transform="translate(283.076 3567.51)" fill="#fff" stroke="#fff" stroke-width="2"/>
      </g>
      <g id="Ellipse_117" data-name="Ellipse 117" transform="translate(257 3611)" fill="none" stroke="#fff" stroke-width="3">
        <circle cx="37" cy="37" r="37" stroke="none"/>
        <circle cx="37" cy="37" r="35.5" fill="none"/>
      </g>
      <g id="Group_524" data-name="Group 524" transform="translate(-5.627 8)">
        <g id="Ellipse_118" data-name="Ellipse 118" transform="translate(307.627 3652)" fill="#0e99d7" stroke="#fff" stroke-width="3">
          <circle cx="17" cy="17" r="17" stroke="none"/>
          <circle cx="17" cy="17" r="15.5" fill="none"/>
        </g>
        <path id="Path_493" data-name="Path 493" d="M-18451.342,7635.12l4.895,6.053,13.1-11.049" transform="translate(18767.631 -3966.135)" fill="none" stroke="#fff" stroke-width="3"/>
      </g>
    </g>
  </g>
</svg>
