<svg xmlns="http://www.w3.org/2000/svg" width="83.977" height="83.977" viewBox="0 0 83.977 83.977">
  <g id="Group_485" data-name="Group 485" transform="translate(-713.836 -900.116)">
    <path id="Ellipse_164" data-name="Ellipse 164" d="M33.522.014a30.2,30.2,0,0,1,31.461,31.53A34.978,34.978,0,0,1,31.478,64.986,30.2,30.2,0,0,1,.016,33.456,34.978,34.978,0,0,1,33.522.014Z" transform="matrix(0.934, -0.358, 0.358, 0.934, 713.836, 923.41)" fill="#fff"/>
    <path id="user-thumb-up" d="M49.705,41.1a2.124,2.124,0,0,0-1.719-.864h-2.6v-2.16a2.163,2.163,0,0,0-2.16-2.16H40.356l-.748,3.74a1.379,1.379,0,0,1-.9,1.03l-1.019.29a2.59,2.59,0,0,0-4.4,1.852v5.184a2.589,2.589,0,0,0,4.657,1.56l.166.166A2.941,2.941,0,0,0,40.2,50.6h6.052a2,2,0,0,0,1.93-1.436L50.038,43A2.124,2.124,0,0,0,49.705,41.1ZM36.744,48.013a.864.864,0,1,1-1.728,0V42.828a.864.864,0,0,1,1.728,0ZM48.383,42.5l-1.852,6.174a.289.289,0,0,1-.275.2H40.2a1.223,1.223,0,0,1-.871-.361l-.861-.861V42.828a2.6,2.6,0,0,0-.015-.273l.747-.213.037-.011A3.111,3.111,0,0,0,41.3,40l.471-2.351h1.452a.432.432,0,0,1,.432.432v3.888h4.329a.415.415,0,0,1,.4.534Zm-12.009-3.99h1.7l.039-.2a11.279,11.279,0,0,0-7.008-7.754,7.776,7.776,0,1,0-7.75,0A11.252,11.252,0,0,0,16,41.1h1.728a9.5,9.5,0,0,1,18.646-2.592ZM21.184,23.826a6.048,6.048,0,1,1,6.048,6.042A6.052,6.052,0,0,1,21.184,23.826Z" transform="translate(726.139 911.717)" fill="#007bc0"/>
  </g>
</svg>
