<svg xmlns="http://www.w3.org/2000/svg" width="83.58" height="83.58" viewBox="0 0 83.58 83.58">
  <g id="Group_487" data-name="Group 487" transform="translate(-1230.898 -903.113)">
    <ellipse id="Ellipse_169" data-name="Ellipse 169" cx="32.346" cy="32.346" rx="32.346" ry="32.346" transform="matrix(0.934, -0.358, 0.358, 0.934, 1230.898, 926.297)" fill="#fff"/>
    <path id="appliance-air-leaf" d="M55.988,16h-13.9A6.09,6.09,0,0,0,36,22.083v22.6a6.09,6.09,0,0,0,6.083,6.083h13.9a6.09,6.09,0,0,0,6.083-6.083v-22.6A6.09,6.09,0,0,0,55.988,16Zm4.345,28.679a4.35,4.35,0,0,1-4.345,4.345h-13.9a4.35,4.35,0,0,1-4.345-4.345v-22.6a4.35,4.35,0,0,1,4.345-4.345h13.9a4.35,4.35,0,0,1,4.345,4.345Zm-19.374-4.6,2.645-2.646a10.727,10.727,0,0,0,5.378,1.607,6.985,6.985,0,0,0,5.09-2.109C59.06,31.944,57.528,23.4,57.46,23.044l-.109-.584-.584-.11c-.361-.068-8.9-1.6-13.888,3.387-3.418,3.418-2,8.022-.5,10.468L39.73,38.85l1.229,1.229Zm3.147-13.113c3.633-3.633,9.789-3.229,11.732-2.994.237,1.943.647,8.089-3,11.731a5.541,5.541,0,0,1-5.672,1.361,10.486,10.486,0,0,1-2.283-.913L52.5,28.539,51.27,27.31,43.66,34.921C42.779,33.282,41.38,29.693,44.107,26.966Zm8.405,18.582a6.7,6.7,0,0,1-3.958-1.45,5.058,5.058,0,0,0-2.994-1.158,6.8,6.8,0,0,0-4.548,2.3l-1.334-1.115A8.466,8.466,0,0,1,45.56,41.2a6.7,6.7,0,0,1,3.958,1.45,5.058,5.058,0,0,0,2.994,1.158,6.8,6.8,0,0,0,4.548-2.3l1.334,1.115A8.466,8.466,0,0,1,52.512,45.548Z" transform="translate(1225.031 910.976)" fill="#00884a"/>
  </g>
</svg>
