<svg xmlns="http://www.w3.org/2000/svg" width="83.846" height="84.109" viewBox="0 0 83.846 84.109">
  <g id="Group_486" data-name="Group 486" transform="translate(-971.587 -902.317)">
    <path id="Ellipse_168" data-name="Ellipse 168" d="M32.489,0A32.253,32.253,0,0,1,64.772,32.512,32.751,32.751,0,0,1,32.283,65.229,32.253,32.253,0,0,1,0,32.718,32.751,32.751,0,0,1,32.489,0Z" transform="matrix(0.934, -0.358, 0.358, 0.934, 971.587, 925.529)" fill="#fff"/>
    <path id="lock-closed-checkmark" d="M55.331,46.6l-2.339-2.339,1.222-1.222,1.117,1.117,2.845-2.846L59.4,42.535Zm7.777-2.95A6.913,6.913,0,1,0,56.2,50.565,6.921,6.921,0,0,0,63.108,43.652Zm-1.728,0A5.185,5.185,0,1,1,56.2,38.467,5.19,5.19,0,0,1,61.38,43.652Zm-18.146.864v-4.63a3.422,3.422,0,0,1-.845-2.653,3.456,3.456,0,1,1,6.691,1.523,8.645,8.645,0,0,0-.658,1.124l0,.005v0a8.591,8.591,0,0,0-.864,3.764c0,.292.015.58.043.864Zm1.441-5.628.287.258v3.642H46.69V39.145l.287-.258a1.727,1.727,0,0,0-1.35-3,1.75,1.75,0,0,0-1.519,1.528A1.718,1.718,0,0,0,44.674,38.888ZM59.652,28.1v7.637a8.565,8.565,0,0,0-1.728-.55V29.826h-24.2v19.01H49.287a8.715,8.715,0,0,0,1.73,1.728H32V28.1h4.321V25.505a9.505,9.505,0,0,1,19.011,0V28.1Zm-21.6,0H53.6V25.505a7.777,7.777,0,0,0-15.554,0Z" transform="translate(967.466 911.771)" fill="#9e2896"/>
  </g>
</svg>
