<svg xmlns="http://www.w3.org/2000/svg" width="139.426" height="81.916" viewBox="0 0 139.426 81.916">
  <g id="Group_508" data-name="Group 508" transform="translate(-536.572 -5522)">
    <path id="mechanic" d="M110.877,81.872a17.567,17.567,0,0,1-15.456,4.849L88.946,93.2a41.3,41.3,0,0,0-2.636-4.435L93.873,81.2l1.393.372a12.5,12.5,0,0,0,15.61-13.839l-7.07,7.071A7.5,7.5,0,1,1,93.2,64.194l7.069-7.069a12.5,12.5,0,0,0-13.839,15.61l.372,1.392-7.11,7.11a41.523,41.523,0,0,0-3.953-3.118l5.54-5.539a17.5,17.5,0,0,1,24.766-18.873l3.19,1.523-12.5,12.5a2.5,2.5,0,0,0,0,3.536,2.561,2.561,0,0,0,3.536,0l12.5-12.5,1.524,3.189a17.529,17.529,0,0,1-3.418,19.917ZM62.414,77.211a23.75,23.75,0,1,0-20.327,0A36.308,36.308,0,0,0,16,112h5a31.25,31.25,0,0,1,62.5,0h5A36.307,36.307,0,0,0,62.414,77.211ZM33.5,55.75A18.75,18.75,0,1,1,52.25,74.5,18.771,18.771,0,0,1,33.5,55.75Z" transform="translate(560 5490)" fill="#fff"/>
    <g id="Group_507" data-name="Group 507" transform="translate(904.74 11153.496) rotate(180)">
      <line id="Line_1469" data-name="Line 1469" y2="27" transform="translate(352.5 5561.5)" fill="none" stroke="#fff" stroke-width="4"/>
      <path id="Path_804" data-name="Path 804" d="M0,1.261,12.859,13.675.468,26.556l1.261,1.215,13.65-14.142L1.216,0Z" transform="translate(338.984 5566.375) rotate(-90)" fill="#fff" stroke="#fff" stroke-width="2"/>
    </g>
  </g>
</svg>
