<svg xmlns="http://www.w3.org/2000/svg" width="83.58" height="83.58" viewBox="0 0 83.58 83.58">
  <g id="Group_484" data-name="Group 484" transform="translate(-450.578 -903.113)">
    <ellipse id="Ellipse_166" data-name="Ellipse 166" cx="32.346" cy="32.346" rx="32.346" ry="32.346" transform="matrix(0.934, -0.358, 0.358, 0.934, 450.578, 926.297)" fill="#fff"/>
    <path id="laptop" d="M46.982,53.312v-14.8A2.519,2.519,0,0,0,44.47,36H21.024a2.519,2.519,0,0,0-2.512,2.512v14.8L16,56.662v1.947a2.519,2.519,0,0,0,2.512,2.512h28.47a2.519,2.519,0,0,0,2.512-2.512V56.662ZM21.024,37.675H44.47a.84.84,0,0,1,.837.837V52.747H20.187V38.512A.84.84,0,0,1,21.024,37.675ZM19.768,54.422H45.726L46.982,56.1H18.512Zm27.214,5.024H18.512a.84.84,0,0,1-.837-.837v-.837H47.82v.837A.84.84,0,0,1,46.982,59.446Z" transform="translate(459.938 896.544)" fill="#147671"/>
  </g>
</svg>
