<svg xmlns="http://www.w3.org/2000/svg" width="83.58" height="83.58" viewBox="0 0 83.58 83.58">
  <g id="Group_483" data-name="Group 483" transform="translate(-186.225 -903.113)">
    <ellipse id="Ellipse_161" data-name="Ellipse 161" cx="32.346" cy="32.346" rx="32.346" ry="32.346" transform="matrix(0.934, -0.358, 0.358, 0.934, 186.225, 926.297)" fill="#fff"/>
    <path id="user-advanced" d="M32.142,38.449a7.458,7.458,0,0,0,3.437-6.308,7.238,7.238,0,1,0-14.472,0,7.458,7.458,0,0,0,3.437,6.308A13.054,13.054,0,0,0,16,50.9h1.7c0-6.254,4.773-11.342,10.641-11.342S38.984,44.645,38.984,50.9h1.7A13.054,13.054,0,0,0,32.142,38.449ZM22.81,32.141a5.535,5.535,0,1,1,5.533,5.671A5.61,5.61,0,0,1,22.81,32.141ZM38.986,33.45h3.405v1.745H38.986ZM45.8,25.6a5.279,5.279,0,0,1-2.553,4.534V31.7h-1.7V30.131a1.753,1.753,0,0,1,.875-1.525A3.522,3.522,0,0,0,44.094,25.6a3.407,3.407,0,1,0-6.812,0,3.522,3.522,0,0,0,1.678,3.009,1.753,1.753,0,0,1,.875,1.525V31.7h-1.7V30.132A5.279,5.279,0,0,1,35.579,25.6a5.11,5.11,0,1,1,10.217,0Zm-4.258-6.98h-1.7V16h1.7Zm8.513,6.107V26.47H47.5V24.725ZM35.269,21.279l-1.806-1.851,1.2-1.234,1.806,1.851Zm10.835,0-1.2-1.234,1.806-1.851,1.2,1.234Zm0,8.637,1.806,1.851L46.706,33,44.9,31.15Z" transform="translate(196.38 910.976)" fill="#9e2896"/>
  </g>
</svg>
