<svg xmlns="http://www.w3.org/2000/svg" width="33" height="33" viewBox="0 0 33 33">
  <path id="instagram-frame" d="M32.5,49A16.5,16.5,0,1,1,49,32.5,16.519,16.519,0,0,1,32.5,49Zm0-31.35A14.85,14.85,0,1,0,47.35,32.5,14.867,14.867,0,0,0,32.5,17.65Zm-.1,7.222a31.832,31.832,0,0,1,3.53.086,5.281,5.281,0,0,1,1.636.258,3.166,3.166,0,0,1,1.722,1.722,5.281,5.281,0,0,1,.258,1.636c0,.947.086,1.206.086,3.53a31.759,31.759,0,0,1-.086,3.53,5.273,5.273,0,0,1-.258,1.636,3.166,3.166,0,0,1-1.722,1.722,5.279,5.279,0,0,1-1.636.258c-.947,0-1.206.086-3.53.086a31.763,31.763,0,0,1-3.53-.086,5.281,5.281,0,0,1-1.636-.258,3.166,3.166,0,0,1-1.722-1.722,5.279,5.279,0,0,1-.258-1.636c0-.947-.086-1.206-.086-3.53a31.839,31.839,0,0,1,.086-3.53,5.271,5.271,0,0,1,.258-1.636,3.166,3.166,0,0,1,1.722-1.722,5.279,5.279,0,0,1,1.636-.258,31.838,31.838,0,0,1,3.53-.086m0-1.55a33.774,33.774,0,0,0-3.616.086,5.018,5.018,0,0,0-2.153.431,4.75,4.75,0,0,0-2.583,2.583,6.279,6.279,0,0,0-.431,2.153c0,.947-.086,1.206-.086,3.616a33.774,33.774,0,0,0,.086,3.616,5.018,5.018,0,0,0,.431,2.153,4.75,4.75,0,0,0,2.583,2.583,6.279,6.279,0,0,0,2.153.431c.947,0,1.206.086,3.616.086a32.825,32.825,0,0,0,3.616-.086,5.018,5.018,0,0,0,2.153-.431,4.75,4.75,0,0,0,2.583-2.583,6.279,6.279,0,0,0,.431-2.153c0-.947.086-1.206.086-3.616a32.825,32.825,0,0,0-.086-3.616,5.018,5.018,0,0,0-.431-2.153,4.75,4.75,0,0,0-2.583-2.583,6.279,6.279,0,0,0-2.153-.431A33.775,33.775,0,0,0,32.4,23.322Zm0,4.219a4.477,4.477,0,1,0,4.477,4.477A4.447,4.447,0,0,0,32.4,27.541Zm0,7.4a2.928,2.928,0,1,1,2.928-2.928A2.958,2.958,0,0,1,32.4,34.946Zm3.616-7.577a1.033,1.033,0,1,0,1.033-1.033,1.033,1.033,0,0,0-1.033,1.033Z" transform="translate(-16 -16)"/>
</svg>
