<svg xmlns="http://www.w3.org/2000/svg" width="85.491" height="85.491" viewBox="0 0 85.491 85.491">
  <path id="leaf-plus-boost" d="M113.423,103.442h-10.3v10.3h-10.3v-10.3h-10.3v-10.3h10.3v-10.3h10.3v10.3h10.3Zm-.044-70.025-.325-1.732-1.732-.325a103.054,103.054,0,0,0-24.168-1c-17.9,1.309-32.6,7.247-42.527,17.169-9.112,9.114-12.016,21.107-8.4,34.685a59.473,59.473,0,0,0,6.906,15.747L29.17,111.924l3.644,3.644L46.78,101.6a59.473,59.473,0,0,0,15.747,6.906,42.615,42.615,0,0,0,10.981,1.513,34.932,34.932,0,0,0,3.85-.214v-5.171a34.823,34.823,0,0,1-13.364-1.069,54.331,54.331,0,0,1-13.461-5.719L89.485,58.9l-3.644-3.644L46.893,94.2c-4.207-7.132-14.013-27.644,1.377-43.033C67.54,31.9,100.586,35.052,108.59,36.15c.793,5.742,2.649,24.348-3.485,41.533h5.426a83.65,83.65,0,0,0,3.851-20.1,103.068,103.068,0,0,0-1-24.169Z" transform="translate(-29.17 -30.077)" fill="#fff"/>
</svg>
