<svg xmlns="http://www.w3.org/2000/svg" width="33" height="33" viewBox="0 0 33 33">
  <path id="linkedin-frame" d="M32.5,49A16.5,16.5,0,1,1,49,32.5,16.519,16.519,0,0,1,32.5,49Zm0-31.35A14.85,14.85,0,1,0,47.35,32.5,14.867,14.867,0,0,0,32.5,17.65Zm7.962,16.556v5.739H37.127V34.594c0-1.319-.465-2.249-1.706-2.249a1.79,1.79,0,0,0-1.706,1.241,2.638,2.638,0,0,0-.078.775v5.584H30.3s.078-9.074,0-10.005h3.335v1.4a3.316,3.316,0,0,1,3.025-1.629C38.833,29.63,40.462,31.1,40.462,34.206Zm-13.65-9.152a1.713,1.713,0,1,0,0,3.413,1.713,1.713,0,1,0,0-3.413ZM25.183,39.868h3.335V29.94H25.183v9.927Z" transform="translate(-16 -16)"/>
</svg>
