<svg xmlns="http://www.w3.org/2000/svg" width="93.457" height="93.457" viewBox="0 0 93.457 93.457">
  <g id="symbol" transform="translate(0.001)">
    <path id="Path_23" data-name="Path 23" d="M244.087,42a46.729,46.729,0,1,0,46.726,46.727A46.729,46.729,0,0,0,244.087,42Zm0,89.094a42.365,42.365,0,1,1,42.372-42.368,42.364,42.364,0,0,1-42.372,42.368Z" transform="translate(-197.357 -42)" fill="#fff"/>
    <path id="Path_24" data-name="Path 24" d="M256.332,49.008h-3.2V65H221.045v-16h-3.3a34.957,34.957,0,0,0,0,58.361h3.3V91.392h32.087v16h3.2a34.95,34.95,0,0,0,0-58.363Zm-39.748,52.078a30.625,30.625,0,0,1-2.552-43.234h0a31.7,31.7,0,0,1,2.55-2.542ZM253.13,86.933H221.043V69.374H253.13Zm4.363,14.057v-9.7h0V65h0v-9.7a30.685,30.685,0,0,1,2.328,43.33l-.012.012q-1.1,1.217-2.316,2.319Z" transform="translate(-190.311 -31.461)" fill="#fff"/>
  </g>
</svg>
