<svg xmlns="http://www.w3.org/2000/svg" width="33" height="33" viewBox="0 0 33 33">
  <path id="twitter-frame" d="M32.5,49A16.5,16.5,0,1,1,49,32.5,16.519,16.519,0,0,1,32.5,49Zm0-31.35A14.85,14.85,0,1,0,47.35,32.5,14.867,14.867,0,0,0,32.5,17.65Zm-.044,12.126c-2.971-.437-4.456-.874-7.6-3.757,0,0-1.573,2.447,1.049,4.806a3.56,3.56,0,0,1-1.573-.437,3.592,3.592,0,0,0,2.709,3.5s-.262.7-1.4.612c0,0,.524,1.66,3.233,2.1a6.666,6.666,0,0,1-5.243,1.485S26.69,40.7,32.369,39.3c4.718-1.223,6.728-6.728,6.728-6.728a11.051,11.051,0,0,0,.437-3.67,10.76,10.76,0,0,0,1.835-1.835l-2.01.524a4.21,4.21,0,0,0,1.485-1.922l-2.184.874a3.343,3.343,0,0,0-3.233-1.223,3.2,3.2,0,0,0-1.66.7,3.655,3.655,0,0,0-1.4,3.058l.087.7Z" transform="translate(-16 -16)"/>
</svg>
